<svg viewBox="0 -18 512.00048 512" xmlns="http://www.w3.org/2000/svg"><path d="m230.367188 316.371094c3.902343-3.910156 3.902343-10.242188 0-14.152344-3.910157-3.898438-10.238282-3.898438-14.148438 0-3.902344 3.910156-3.902344 10.242188 0 14.152344 3.910156 3.898437 10.238281 3.898437 14.148438 0zm0 0"/><path d="m234.007812 81.003906v20c0 33.148438 26.851563 60 60 60 33.085938 0 60.003907-26.914062 60.003907-60v-20c5.523437 0 10-4.476562 10-10 0-5.523437-4.476563-10-10-10h-20c-5.523438 0-10 4.476563-10 10 0 5.523438 4.476562 10 10 10v20c0 22.054688-17.945313 40-40.003907 40-22.089843 0-40-17.902344-40-40v-20c5.523438 0 10-4.476562 10-10 0-5.523437-4.476562-10-10-10h-20c-5.523437 0-10 4.476563-10 10 0 5.523438 4.476563 10 10 10zm0 0"/><path d="m116.21875 472.941406c1.953125 1.949219 4.507812 2.921875 7.066406 2.921875s5.117188-.976562 7.070313-2.925781l30.707031-30.707031c10.003906-9.996094 14.820312-23.6875 13.429688-37.523438l11.011718-10.632812c8.738282-8.421875 20.226563-13.0625 32.34375-13.0625h131.664063c23.585937 0 45.878906-9.058594 62.769531-25.507813.25-.242187.484375-.496094.707031-.765625l89.585938-107.578125c14.234375-16.84375 12.105469-42.132812-4.753907-56.382812-16.75-14.117188-41.851562-12.085938-56.128906 4.476562l-9.675781 10.007813v-195.261719c0-5.523438-4.480469-10-10-10h-257.011719c-5.519531 0-10 4.476562-10 10v224.050781c-38.726562 8.128907-69.441406 32.167969-85.984375 67.308594-13.046875-.675781-25.769531 4.121094-35.210937 13.574219l-30.863282 30.710937c-1.882812 1.875-2.94140575 4.421875-2.945312 7.078125-.00390625 2.660156 1.054688 5.207032 2.933594 7.085938zm295.796875-452.941406v205.941406l-28.941406 29.921875c-7.449219-9.152343-18.800781-14.855469-31.0625-14.855469h-115.945313c-.640625 0-1.335937-.148437-2.035156-.429687-15.578125-6.351563-32.074219-9.570313-49.023438-9.570313-3.347656 0-6.683593.121094-10 .339844v-211.347656zm-245.578125 232.324219c20.230469-2.925781 40.460938-1.207031 60.082031 6.789062 3.117188 1.257813 6.332031 1.898438 9.546875 1.898438h115.945313c10.84375 0 20 8.84375 20 20 0 11.027343-8.972657 20-20 20h-87.003907c-5.519531 0-10 4.476562-10 10 0 5.523437 4.480469 10 10 10h87.003907c22.058593 0 40-17.945313 40-40 0-1.765625-.128907-3.519531-.355469-5.25 2.085938-2.136719 62.53125-64.652344 64.625-66.820313.152344-.160156.304688-.324218.445312-.492187 7.125-8.414063 19.777344-9.476563 28.195313-2.382813 8.425781 7.121094 9.492187 19.765625 2.328125 28.242188l-89.285156 107.21875c-13.089844 12.570312-30.277344 19.484375-48.453125 19.484375h-131.664063c-17.324218 0-33.738281 6.625-46.230468 18.667969l-4.410157 4.257812c-1.765625-2.714844-3.820312-5.25-6.140625-7.566406l-61.421875-61.421875c-3.28125-3.28125-7.003906-6.007813-11.03125-8.160157 15.277344-30.132812 42.566407-49.339843 77.824219-54.464843zm-118.5 76.765625c10.507812-10.523438 27.300781-10.265625 37.5625.003906l61.429688 61.425781c10.296874 10.277344 10.480468 27.089844-.003907 37.5625l-23.648437 23.644531-99.113282-98.980468zm0 0"/></svg>