<svg id="Capa_1" enable-background="new 0 0 497 497" height="512" viewBox="0 0 497 497" width="512" xmlns="http://www.w3.org/2000/svg"><g><g><g><circle cx="248.5" cy="248.5" fill="#8c818f" r="248.5"/></g></g><g><g><path d="m248.5 0c-5.038 0-10.036.168-15 .464 130.256 7.757 233.5 115.831 233.5 248.036s-103.244 240.279-233.5 248.036c4.964.296 9.962.464 15 .464 137.243 0 248.5-111.257 248.5-248.5s-111.257-248.5-248.5-248.5z" fill="#766d78"/></g></g><g><g><circle cx="248.5" cy="248.5" fill="#655e67" r="146.436"/></g></g><g><g><circle cx="248.5" cy="248.5" fill="#f7f7f7" r="115.888"/></g></g><g><g><path d="m248.5 132.612c-5.083 0-10.089.33-15 .965 56.917 7.356 100.888 56.004 100.888 114.924s-43.971 107.567-100.888 114.924c4.911.635 9.917.965 15 .965 64.003 0 115.888-51.885 115.888-115.888s-51.885-115.89-115.888-115.89z" fill="#e8e8e8"/></g></g><g><g><circle cx="248.5" cy="248.5" fill="#8c818f" r="30.653"/></g></g><g><g><circle cx="248.5" cy="177.227" fill="#b1abb4" r="13.568"/></g></g><g><g><circle cx="298.898" cy="198.102" fill="#b1abb4" r="13.568"/></g></g><g><g><circle cx="319.773" cy="248.5" fill="#b1abb4" r="13.568"/></g></g><g><g><circle cx="298.898" cy="298.898" fill="#b1abb4" r="13.568"/></g></g><g><g><circle cx="248.5" cy="319.773" fill="#b1abb4" r="13.568"/></g></g><g><g><circle cx="198.102" cy="298.898" fill="#b1abb4" r="13.568"/></g></g><g><g><circle cx="177.227" cy="248.5" fill="#b1abb4" r="13.568"/></g></g><g><g><circle cx="198.102" cy="198.102" fill="#b1abb4" r="13.568"/></g></g><g fill="#655e67"><path d="m404.708 405.857c-2.815-3.036-7.561-3.215-10.599-.397-3.037 2.817-3.215 7.563-.397 10.599l18.214 19.633c3.767-3.291 7.43-6.697 10.991-10.207z"/><path d="m336.538 53.34c1.001.452 2.049.665 3.08.665 2.857 0 5.589-1.643 6.841-4.418l11.034-24.458c-4.483-2.191-9.041-4.251-13.671-6.176l-11.037 24.465c-1.703 3.777-.022 8.219 3.753 9.922z"/><path d="m453.58 332.786c-3.777-1.703-8.218-.023-9.921 3.753s-.022 8.217 3.753 9.921l24.458 11.033c2.191-4.483 4.251-9.041 6.175-13.67z"/><path d="m410.959 105.29c1.825 0 3.655-.662 5.099-2.002l19.634-18.214c-3.291-3.767-6.697-7.43-10.207-10.991l-19.628 18.209c-3.037 2.817-3.215 7.563-.397 10.599 1.477 1.593 3.484 2.399 5.499 2.399z"/><path d="m470.224 249.312c-4.124-.154-7.62 3.075-7.776 7.214-.155 4.139 3.075 7.62 7.214 7.776l26.761 1.004c.331-4.958.519-9.956.555-14.99z"/><path d="m256.526 34.552c.096.004.191.005.286.005 4.012 0 7.338-3.176 7.49-7.219l1.004-26.76c-4.959-.331-9.956-.519-14.99-.555l-1.004 26.753c-.156 4.139 3.074 7.62 7.214 7.776z"/><path d="m448.752 172.754c1.135 3.001 3.987 4.848 7.016 4.848.882 0 1.779-.157 2.652-.487l25.107-9.497c-1.632-4.743-3.407-9.419-5.313-14.027l-25.101 9.495c-3.873 1.465-5.827 5.794-4.361 9.668z"/><path d="m333.914 453.113c-1.465-3.874-5.797-5.826-9.668-4.361-3.874 1.465-5.827 5.794-4.361 9.669l9.497 25.107c4.743-1.632 9.419-3.407 14.027-5.313z"/><path d="m164.214 453.581c1.704-3.776.023-8.217-3.752-9.921-3.776-1.703-8.217-.023-9.92 3.753l-11.033 24.458c4.483 2.191 9.041 4.251 13.67 6.175z"/><path d="m240.474 462.448c-4.135-.159-7.621 3.075-7.776 7.214l-1.004 26.76c4.958.331 9.956.519 14.99.555l1.003-26.753c.156-4.139-3.074-7.62-7.213-7.776z"/><path d="m91.143 404.708c3.037-2.817 3.215-7.563.398-10.599s-7.562-3.215-10.599-.397l-19.633 18.214c3.291 3.767 6.697 7.43 10.207 10.991z"/><path d="m163.085 43.887c1.135 3.001 3.988 4.848 7.017 4.848.881 0 1.778-.157 2.652-.487 3.874-1.465 5.827-5.794 4.362-9.668l-9.497-25.107c-4.743 1.632-9.419 3.407-14.028 5.313z"/><path d="m18.786 343.409 25.101-9.495c3.875-1.466 5.827-5.794 4.362-9.668s-5.793-5.826-9.668-4.361l-25.107 9.497c1.63 4.743 3.405 9.419 5.312 14.027z"/><path d="m92.291 91.143c1.478 1.593 3.486 2.399 5.501 2.399 1.825 0 3.655-.662 5.099-2.002 3.037-2.817 3.215-7.562.398-10.599l-18.214-19.633c-3.767 3.291-7.43 6.698-10.992 10.208z"/><path d="m26.776 247.688c.096.004.191.005.286.005 4.012 0 7.338-3.175 7.49-7.219.155-4.139-3.074-7.621-7.213-7.776l-26.76-1.004c-.331 4.958-.519 9.956-.555 14.99z"/><path d="m43.419 164.214c1.001.451 2.048.665 3.08.665 2.858 0 5.589-1.643 6.841-4.418 1.704-3.776.023-8.217-3.752-9.921l-24.458-11.032c-2.191 4.483-4.251 9.041-6.175 13.67z"/></g></g></svg>